# xmcd
#
# Track frame offsets:
#	150
#	19830
#	43797
#	64224
#	84512
#	103830
#	124987
#	145080
#	160492
#	175610
#	192365
#	205055
#	219260
#	231465
#	250315
#
# Disc length: 3570
#
# Revision: 1
# Processed by: cddbd v1.5.1PL0 Copyright (c) Steve Scherf et al.
# Submitted via: CDex 1.51
# Normalized: r0:TDELIM( - )
#
DISCID=da0df00f
DTITLE=Various Artist - De Zevende Dag
DYEAR=1993
DGENRE=
TTITLE0=sam brown - stop
TTITLE1=rory block - gipsy boy
TTITLE2=pieter jan de smet - august
TTITLE3=noa - uni
TTITLE4=zap mama - new world
TTITLE5=axelle red - rester femme
TTITLE6=an pierlé - siamese twins
TTITLE7=rafaelle cavalli - il mio canto
TTITLE8=thé lau - brand
TTITLE9=bloem - pink serenity
TTITLE10=JB safari and d denoyelle - caroline cool
TTITLE11=carol laula - you think i've gotta problem
TTITLE12=dulce pontes - o infante
TTITLE13=plying pickets - politics of need
TTITLE14=camelions the - beat it
EXTD=YEAR: 1993
EXTT0=
EXTT1=
EXTT2=
EXTT3=
EXTT4=
EXTT5=
EXTT6=
EXTT7=
EXTT8=
EXTT9=
EXTT10=
EXTT11=
EXTT12=
EXTT13=
EXTT14=
PLAYORDER=
